<svg width="40" height="49" viewBox="0 0 40 49" fill="none" xmlns="http://www.w3.org/2000/svg">
<path fill-rule="evenodd" clip-rule="evenodd" d="M39.3025 14.4886C39.2092 14.2578 39.0602 14.0537 38.8688 13.8945C38.6774 13.7353 38.4495 13.626 38.2055 13.5764C37.9616 13.5268 37.7091 13.5383 37.4707 13.6101C37.2324 13.6818 37.0155 13.8115 36.8394 13.9876L32.4243 18.4028L30.6124 17.9173L30.1269 16.1054L34.542 11.6902C34.7181 11.5142 34.8478 11.2973 34.9196 11.0589C34.9913 10.8205 35.0029 10.5681 34.9533 10.3241C34.9037 10.0801 34.7944 9.85227 34.6352 9.66087C34.476 9.46946 34.2719 9.32048 34.041 9.22723C32.4783 8.59443 30.7755 8.38782 29.1068 8.62852V4.78746C29.1068 2.14769 26.9591 0 24.3193 0H4.78746C2.14769 0 0 2.14759 0 4.78746V43.4414C0 46.0812 2.14769 48.2288 4.78746 48.2288H24.3193C26.9591 48.2288 29.1068 46.0812 29.1068 43.4414V27.4948C32.0392 27.9119 35.0637 26.944 37.2049 24.8028C38.5301 23.4804 39.436 21.7966 39.8091 19.962C40.1822 18.1274 40.006 16.2235 39.3025 14.4886ZM19.9304 3.0143L19.4796 4.40182H9.62719L9.17637 3.0143H19.9304ZM24.3193 45.2145H4.78746C3.80969 45.2145 3.0143 44.4191 3.0143 43.4413V4.78746C3.0143 3.80969 3.80979 3.0143 4.78746 3.0143H6.00693L7.09876 6.37477C7.19711 6.67747 7.38877 6.94127 7.64626 7.12836C7.90376 7.31544 8.21387 7.41621 8.53216 7.41621H20.5746C20.8929 7.41621 21.203 7.31544 21.4605 7.12836C21.718 6.94127 21.9097 6.67747 22.008 6.37477L23.0999 3.0143H24.3193C25.2971 3.0143 26.0925 3.80969 26.0925 4.78746V9.59488C25.2196 10.0463 24.4216 10.6298 23.7268 11.3247C21.3435 13.708 20.4122 17.1852 21.2287 20.4125L15.5349 26.1064C13.6358 28.0055 13.6358 31.0957 15.5349 32.9948C16.4522 33.9121 17.6755 34.4172 18.979 34.4172C20.2828 34.4172 21.5059 33.9121 22.4232 32.9947L26.0924 29.3254V43.4413C26.0925 44.4191 25.2971 45.2145 24.3193 45.2145ZM35.0735 22.6715C33.2833 24.4616 30.5903 25.0536 28.2125 24.1795C27.9424 24.0802 27.6496 24.0604 27.3687 24.1222C27.0877 24.184 26.8302 24.325 26.6268 24.5284L20.2919 30.8633C19.9439 31.2113 19.4776 31.4029 18.979 31.4029C18.4806 31.4029 18.0144 31.2113 17.6662 30.8632C17.3183 30.5152 17.1266 30.049 17.1266 29.5505C17.1266 29.052 17.3183 28.5857 17.6662 28.2376L24.0011 21.9027C24.2045 21.6993 24.3454 21.4419 24.4073 21.1609C24.4691 20.8799 24.4492 20.5871 24.35 20.3171C23.476 17.9392 24.0679 15.2461 25.8581 13.456C27.0964 12.2177 28.7427 11.5553 30.4243 11.5449L27.3801 14.5892C27.193 14.7763 27.0585 15.0093 26.99 15.2648C26.9215 15.5204 26.9215 15.7895 26.9899 16.045L27.926 19.5379C27.9944 19.7934 28.129 20.0264 28.316 20.2135C28.5031 20.4005 28.7361 20.5351 28.9916 20.6036L32.4845 21.5395C32.7401 21.608 33.0091 21.608 33.2647 21.5395C33.5202 21.471 33.7532 21.3365 33.9403 21.1494L36.9845 18.1052C36.9738 19.8196 36.2871 21.4605 35.0735 22.6715ZM16.9083 40.2575C16.9083 41.5546 15.8505 42.6125 14.5534 42.6125C13.2563 42.6125 12.1985 41.5546 12.1985 40.2575C12.1985 38.9605 13.2563 37.9026 14.5534 37.9026C15.8505 37.9026 16.9083 38.9604 16.9083 40.2575Z" fill="#EB6029"/>
</svg>
