<svg width="43" height="44" viewBox="0 0 43 44" fill="none" xmlns="http://www.w3.org/2000/svg">
<g filter="url(#filter0_d_138_971)">
<path d="M23.997 12.4999V6.24992C23.9964 5.99789 23.9196 5.75195 23.7767 5.54436C23.6337 5.33677 23.4314 5.17723 23.1962 5.08667C22.961 4.9961 22.704 4.97875 22.4587 5.03688C22.2135 5.09501 21.9916 5.22592 21.822 5.41242L10.572 17.9124C10.3647 18.1421 10.25 18.4405 10.25 18.7499C10.25 19.0593 10.3647 19.3577 10.572 19.5874L21.822 32.0874C21.9916 32.2739 22.2135 32.4048 22.4587 32.463C22.704 32.5211 22.961 32.5037 23.1962 32.4132C23.4314 32.3226 23.6337 32.1631 23.7767 31.9555C23.9196 31.7479 23.9964 31.5019 23.997 31.2499V24.9999C31.322 25.2499 32.847 27.8499 35.747 32.7874C36.0345 33.2999 36.347 33.8249 36.672 34.3624C36.7795 34.5537 36.9355 34.7133 37.1242 34.8252C37.3129 34.9371 37.5277 34.9973 37.747 34.9999C37.8588 35.0181 37.9728 35.0181 38.0845 34.9999C38.3549 34.9243 38.592 34.7599 38.7575 34.5331C38.923 34.3064 39.0074 34.0305 38.997 33.7499C38.997 26.5124 38.997 13.2249 23.997 12.4999ZM22.747 22.4999C22.4155 22.4999 22.0976 22.6316 21.8632 22.866C21.6287 23.1005 21.497 23.4184 21.497 23.7499V27.9874L13.1845 18.7499L21.497 9.51242V13.7499C21.497 14.0814 21.6287 14.3994 21.8632 14.6338C22.0976 14.8682 22.4155 14.9999 22.747 14.9999C33.8095 14.9999 35.972 22.3124 36.397 29.0499C33.822 24.9999 30.997 22.4999 22.747 22.4999Z" fill="#3CA200"/>
<path d="M6.93455 18.7499L17.422 7.08739C17.5437 6.96807 17.6396 6.82515 17.704 6.6674C17.7684 6.50965 17.7998 6.34041 17.7964 6.17006C17.793 5.99971 17.7548 5.83186 17.6842 5.67682C17.6135 5.52177 17.512 5.3828 17.3857 5.26845C17.2593 5.15409 17.111 5.06676 16.9497 5.01183C16.7884 4.95689 16.6176 4.93551 16.4478 4.94899C16.2779 4.96247 16.1126 5.01053 15.962 5.09022C15.8114 5.16991 15.6787 5.27954 15.572 5.41239L4.32205 17.9124C4.11475 18.1421 4 18.4405 4 18.7499C4 19.0593 4.11475 19.3577 4.32205 19.5874L15.572 32.0874C15.6889 32.2169 15.8316 32.3205 15.9909 32.3915C16.1502 32.4626 16.3226 32.4995 16.497 32.4999C16.8068 32.4991 17.1053 32.3833 17.3345 32.1749C17.5794 31.9525 17.726 31.6421 17.7424 31.3117C17.7588 30.9814 17.6436 30.658 17.422 30.4124L6.93455 18.7499Z" fill="#3CA200"/>
</g>
<defs>
<filter id="filter0_d_138_971" x="-2.50391" y="0" width="48" height="48" filterUnits="userSpaceOnUse" color-interpolation-filters="sRGB">
<feFlood flood-opacity="0" result="BackgroundImageFix"/>
<feColorMatrix in="SourceAlpha" type="matrix" values="0 0 0 0 0 0 0 0 0 0 0 0 0 0 0 0 0 0 127 0" result="hardAlpha"/>
<feOffset dy="4"/>
<feGaussianBlur stdDeviation="2"/>
<feComposite in2="hardAlpha" operator="out"/>
<feColorMatrix type="matrix" values="0 0 0 0 0 0 0 0 0 0 0 0 0 0 0 0 0 0 0.25 0"/>
<feBlend mode="normal" in2="BackgroundImageFix" result="effect1_dropShadow_138_971"/>
<feBlend mode="normal" in="SourceGraphic" in2="effect1_dropShadow_138_971" result="shape"/>
</filter>
</defs>
</svg>
