<svg width="60" height="60" viewBox="0 0 60 60" fill="none" xmlns="http://www.w3.org/2000/svg">
<path d="M13.2969 34.835C13.1011 34.835 12.9084 34.8841 12.7364 34.9777C12.5645 35.0714 12.4187 35.2066 12.3125 35.3711C12.2063 35.5356 12.1429 35.7241 12.1283 35.9193C12.1137 36.1146 12.1483 36.3104 12.2288 36.4889C13.5667 39.4534 16.5293 41.3689 19.7765 41.3689C23.0373 41.3689 25.9624 39.4608 27.3008 36.5417H32.699C34.0374 39.4608 36.9625 41.3689 40.2233 41.3689C43.4706 41.3689 46.4332 39.4534 47.771 36.4889C47.8516 36.3104 47.8862 36.1146 47.8716 35.9193C47.857 35.724 47.7937 35.5355 47.6874 35.371C47.5812 35.2065 47.4354 35.0713 47.2634 34.9776C47.0915 34.884 46.8988 34.835 46.7029 34.835H42.0021L41.039 33.0766L42.0021 31.3182H46.7029C46.8987 31.3182 47.0914 31.2692 47.2634 31.1755C47.4354 31.0819 47.5811 30.9466 47.6873 30.7821C47.7936 30.6176 47.8569 30.4292 47.8715 30.2339C47.8861 30.0386 47.8516 29.8428 47.771 29.6643C46.4332 26.7 43.4706 24.7844 40.2233 24.7844C36.9624 24.7844 34.0373 26.6926 32.699 29.6116H27.3008C25.9625 26.6926 23.0374 24.7844 19.7765 24.7844C16.5294 24.7844 13.5667 26.7 12.2288 29.6643C12.1482 29.8428 12.1137 30.0386 12.1283 30.2339C12.1429 30.4292 12.2062 30.6177 12.3124 30.7822C12.4186 30.9467 12.5644 31.0819 12.7364 31.1756C12.9084 31.2692 13.1011 31.3183 13.2969 31.3182H17.9977L18.9608 33.0766L17.9977 34.835H13.2969ZM19.7198 36.5699L21.3247 33.6396C21.4192 33.467 21.4687 33.2734 21.4687 33.0767C21.4687 32.8799 21.4192 32.6863 21.3247 32.5138L19.7198 29.5835C19.6188 29.3991 19.4701 29.2453 19.2893 29.1382C19.1085 29.0311 18.9022 28.9746 18.692 28.9746H15.4788C16.5818 27.8174 18.1281 27.1283 19.7764 27.1283C22.3202 27.1283 24.5791 28.7485 25.3974 31.1602C25.4761 31.3921 25.6255 31.5935 25.8245 31.7362C26.0236 31.8788 26.2623 31.9555 26.5072 31.9555H33.4925C33.7374 31.9555 33.9761 31.8788 34.1752 31.7362C34.3742 31.5935 34.5236 31.3921 34.6023 31.1602C35.4206 28.7485 37.6795 27.1283 40.2233 27.1283C41.8715 27.1283 43.4179 27.8174 44.5209 28.9746H41.3077C41.0976 28.9746 40.8912 29.0311 40.7104 29.1382C40.5296 29.2453 40.3809 29.3991 40.2799 29.5835L38.675 32.5138C38.5805 32.6863 38.531 32.8799 38.531 33.0767C38.531 33.2734 38.5805 33.467 38.675 33.6396L40.2799 36.5699C40.3809 36.7542 40.5296 36.908 40.7104 37.0151C40.8912 37.1222 41.0976 37.1788 41.3077 37.1788H44.521C43.4181 38.3362 41.8719 39.0252 40.2234 39.0252C37.6796 39.0252 35.4208 37.4049 34.6024 34.9932C34.5237 34.7613 34.3743 34.5599 34.1753 34.4173C33.9762 34.2747 33.7375 34.198 33.4926 34.198H26.5073C26.2624 34.198 26.0237 34.2747 25.8247 34.4173C25.6256 34.5599 25.4763 34.7613 25.3975 34.9932C24.5792 37.4049 22.3203 39.0252 19.7765 39.0252C18.1281 39.0252 16.5818 38.3362 15.4789 37.1788H18.6922C18.9023 37.1787 19.1086 37.1222 19.2894 37.0151C19.4702 36.9079 19.6189 36.7542 19.7198 36.5699Z" fill="#EB6029"/>
<path d="M52.5035 11.898H32.8404L42.792 2.00295C43.251 1.54663 43.2531 0.804598 42.7968 0.345693C42.3403 -0.11333 41.5984 -0.115556 41.1395 0.341005L29.9999 11.4172L22.698 4.15686C22.2391 3.7003 21.497 3.7024 21.0407 4.16154C20.5844 4.62045 20.5865 5.36248 21.0455 5.81881L27.1594 11.898H7.49644C4.65312 11.898 2.33984 14.2112 2.33984 17.0546V54.8434C2.33984 57.6868 4.65312 60 7.49644 60H52.5035C55.3468 60 57.6601 57.6868 57.6601 54.8434V17.0546C57.66 14.2112 55.3468 11.898 52.5035 11.898ZM55.3162 54.8434C55.3162 56.3944 54.0544 57.6562 52.5034 57.6562H7.49644C5.94546 57.6562 4.68359 56.3944 4.68359 54.8434V17.0546C4.68359 15.5036 5.94546 14.2418 7.49644 14.2418H52.5035C54.0545 14.2418 55.3163 15.5036 55.3163 17.0546V54.8434H55.3162Z" fill="#EB6029"/>
<path d="M50.6288 17.7573H9.37109C8.72387 17.7573 8.19922 18.2821 8.19922 18.9292V52.9688C8.19922 53.6159 8.72387 54.1406 9.37109 54.1406H50.6288C51.2761 54.1406 51.8007 53.6159 51.8007 52.9688V18.9292C51.8007 18.282 51.2761 17.7573 50.6288 17.7573ZM49.457 51.7969H10.543V20.1011H49.457V51.7969Z" fill="#EB6029"/>
<path d="M39.5146 43.5663H20.4854C19.8381 43.5663 19.3135 44.091 19.3135 44.7382C19.3135 45.3853 19.8381 45.91 20.4854 45.91H39.5146C40.1618 45.91 40.6865 45.3853 40.6865 44.7382C40.6865 44.091 40.1618 43.5663 39.5146 43.5663Z" fill="#EB6029"/>
</svg>
