<svg width="40" height="41" viewBox="0 0 40 41" fill="none" xmlns="http://www.w3.org/2000/svg">
<g clip-path="url(#clip0_1_3141)">
<path d="M39.514 14.431L36.7971 12.4694V4.52987C36.7971 3.88275 36.2725 3.35812 35.6254 3.35812H30.9384C30.2912 3.35812 29.7666 3.88275 29.7666 4.52987V7.39348L20.6879 0.838694C20.4882 0.694534 20.2482 0.616943 20.002 0.616943C19.7557 0.616943 19.5157 0.694534 19.316 0.838694L0.489871 14.431C-0.735627 15.3867 0.570254 17.1933 1.86168 16.331L3.20693 15.3598V39.441C3.20693 40.0881 3.73157 40.6128 4.37869 40.6128H35.6254C36.2725 40.6128 36.7971 40.0881 36.7971 39.441V15.3598L38.1423 16.331C38.6615 16.7073 39.3972 16.595 39.7781 16.0669C40.157 15.5422 40.0387 14.8098 39.514 14.431ZM32.1101 5.70163H34.4536V10.7774L32.1101 9.08542V5.70163ZM34.4536 38.2693H5.55044V13.6678L20.002 3.23399L34.4536 13.6679V38.2693Z" fill="black"/>
<path d="M21.5029 34.9356C21.5461 35.2115 21.6865 35.4629 21.8988 35.6445C22.111 35.8261 22.3812 35.9259 22.6605 35.9259H29.5286C29.8079 35.9259 30.078 35.8262 30.2902 35.6446C30.5025 35.4631 30.6429 35.2117 30.6861 34.9358L32.0959 25.9523C32.1221 25.7851 32.1119 25.6142 32.0658 25.4514C32.0197 25.2886 31.9388 25.1377 31.8288 25.009C31.8078 24.9845 31.7851 24.9619 31.7623 24.9394C31.7625 24.9344 31.7629 24.9294 31.763 24.9243C31.8605 22.1656 29.1392 20.1931 26.6052 20.64C23.7749 18.1202 19.7684 21.139 20.7824 24.6981C20.6204 24.7686 20.4765 24.8749 20.3614 25.009C20.2514 25.1376 20.1706 25.2885 20.1244 25.4513C20.0783 25.6141 20.068 25.785 20.0942 25.9522L21.5029 34.9356ZM28.5263 33.5824H23.6628L22.6216 26.9424H29.5684L28.5263 33.5824ZM24.2594 22.0601C24.6493 22.0601 25.0155 22.2746 25.2641 22.6485C25.4109 22.8694 25.6284 23.0339 25.8808 23.1151C26.1332 23.1964 26.4058 23.1896 26.6539 23.096C26.7623 23.0549 26.8685 23.008 26.9718 22.9554L26.9737 22.9545C27.0345 22.9472 27.1893 22.9359 27.5621 22.9359C27.857 22.9359 28.4718 23.1396 28.9154 23.5924C29.1992 23.8822 29.3594 24.2141 29.4049 24.5989H23.2387C23.0678 24.2387 22.9704 23.8901 22.9704 23.6225C22.9704 22.7609 23.5487 22.0601 24.2594 22.0601ZM16.4867 28.8954H15.1197V17.7246C15.062 16.1716 12.8333 16.1728 12.7762 17.7246V28.8954H11.4091C9.47082 28.8954 7.89388 30.4723 7.89388 32.4106V34.7541C7.89388 35.4013 8.41851 35.9259 9.06563 35.9259H18.8302C19.4774 35.9259 20.002 35.4013 20.002 34.7541V32.4106C20.002 30.4722 18.4251 28.8954 16.4867 28.8954ZM17.6585 33.5824H10.2374V32.4106C10.2374 31.7645 10.763 31.2389 11.4091 31.2389H16.4867C17.1328 31.2389 17.6585 31.7645 17.6585 32.4106V33.5824Z" fill="black"/>
</g>
<defs>
<clipPath id="clip0_1_3141">
<rect width="40" height="40" fill="white" transform="translate(0 0.61499)"/>
</clipPath>
</defs>
</svg>
